<svg width="203" height="55" viewBox="0 0 203 55" fill="none" xmlns="http://www.w3.org/2000/svg">
<rect width="55" height="55" rx="8" fill="white"/>
<path d="M38.8 23.2933C36.3866 23.2933 35.4 21.5867 36.6 19.4933C37.2933 18.28 36.88 16.7333 35.6666 16.04L33.36 14.72C32.3066 14.0933 30.9466 14.4667 30.32 15.52L30.1733 15.7733C28.9733 17.8667 27 17.8667 25.7866 15.7733L25.64 15.52C25.04 14.4667 23.68 14.0933 22.6266 14.72L20.32 16.04C19.1066 16.7333 18.6933 18.2933 19.3866 19.5067C20.6 21.5867 19.6133 23.2933 17.2 23.2933C15.8133 23.2933 14.6666 24.4267 14.6666 25.8267V28.1733C14.6666 29.56 15.8 30.7067 17.2 30.7067C19.6133 30.7067 20.6 32.4133 19.3866 34.5067C18.6933 35.72 19.1066 37.2667 20.32 37.96L22.6266 39.28C23.68 39.9067 25.04 39.5333 25.6666 38.48L25.8133 38.2267C27.0133 36.1333 28.9866 36.1333 30.2 38.2267L30.3466 38.48C30.9733 39.5333 32.3333 39.9067 33.3866 39.28L35.6933 37.96C36.9066 37.2667 37.32 35.7067 36.6266 34.5067C35.4133 32.4133 36.4 30.7067 38.8133 30.7067C40.2 30.7067 41.3466 29.5733 41.3466 28.1733V25.8267C41.3333 24.44 40.2 23.2933 38.8 23.2933ZM28 31.3333C25.6133 31.3333 23.6666 29.3867 23.6666 27C23.6666 24.6133 25.6133 22.6667 28 22.6667C30.3866 22.6667 32.3333 24.6133 32.3333 27C32.3333 29.3867 30.3866 31.3333 28 31.3333Z" fill="#0F191A"/>
<rect x="148" width="55" height="55" rx="8" fill="white"/>
<path d="M185.787 30.32L184.453 28.1066C184.173 27.6133 183.92 26.68 183.92 26.1333V22.76C183.92 19.6266 182.08 16.92 179.427 15.6533C178.733 14.4266 177.453 13.6666 175.987 13.6666C174.533 13.6666 173.227 14.4533 172.533 15.6933C169.933 16.9866 168.133 19.6666 168.133 22.76V26.1333C168.133 26.68 167.88 27.6133 167.6 28.0933L166.253 30.32C165.72 31.2133 165.6 32.2 165.933 33.1066C166.253 34 167.013 34.6933 168 35.0266C170.587 35.9066 173.307 36.3333 176.027 36.3333C178.747 36.3333 181.467 35.9066 184.053 35.04C184.987 34.7333 185.707 34.0266 186.053 33.1066C186.4 32.1866 186.307 31.1733 185.787 30.32Z" fill="#0F191A"/>
<path d="M179.773 37.68C179.213 39.2266 177.733 40.3333 176 40.3333C174.947 40.3333 173.907 39.9066 173.173 39.1466C172.747 38.7466 172.427 38.2133 172.24 37.6666C172.413 37.6933 172.587 37.7066 172.773 37.7333C173.08 37.7733 173.4 37.8133 173.72 37.84C174.48 37.9066 175.253 37.9466 176.027 37.9466C176.787 37.9466 177.547 37.9066 178.293 37.84C178.573 37.8133 178.853 37.8 179.12 37.76C179.333 37.7333 179.547 37.7066 179.773 37.68Z" fill="#0F191A"/>
<rect x="74" width="55" height="55" rx="8" fill="white"/>
<path d="M106.347 41.3334C106.267 41.3334 106.173 41.32 106.093 41.2934C103.413 40.5334 100.6 40.5334 97.9201 41.2934C97.4267 41.4267 96.9067 41.1467 96.7734 40.6534C96.6267 40.16 96.9201 39.64 97.4134 39.5067C100.427 38.6534 103.6 38.6534 106.613 39.5067C107.107 39.6534 107.4 40.16 107.253 40.6534C107.12 41.0667 106.747 41.3334 106.347 41.3334Z" fill="#0F191A"/>
<path d="M111.613 20.48C110.227 17.68 107.547 15.6133 104.44 14.9333C101.187 14.2133 97.8533 14.9867 95.3066 17.04C92.7466 19.08 91.2933 22.1333 91.2933 25.4C91.2933 28.8533 93.3599 32.4667 96.4799 34.56V35.6667C96.4666 36.04 96.4533 36.6133 96.9066 37.08C97.3733 37.56 98.0666 37.6133 98.6133 37.6133H105.453C106.173 37.6133 106.72 37.4134 107.093 37.04C107.6 36.52 107.587 35.8533 107.573 35.4933V34.56C111.707 31.7733 114.307 25.8933 111.613 20.48ZM104.293 27.4933L102.867 29.9733C102.68 30.2933 102.347 30.48 102 30.48C101.827 30.48 101.653 30.44 101.507 30.3467C101.027 30.0667 100.867 29.4533 101.133 28.9867L102.267 27.0133H101.147C100.48 27.0133 99.9333 26.72 99.6399 26.2267C99.3466 25.72 99.3733 25.1067 99.7066 24.52L101.133 22.04C101.413 21.56 102.027 21.4 102.493 21.6667C102.973 21.9467 103.133 22.56 102.867 23.0267L101.733 25H102.853C103.52 25 104.067 25.2933 104.36 25.7867C104.653 26.2933 104.627 26.92 104.293 27.4933Z" fill="#0F191A"/>
</svg>
