<svg width="32" height="32" viewBox="0 0 32 32" fill="none" xmlns="http://www.w3.org/2000/svg">
<rect width="32" height="32" rx="4" fill="#A9DEF9"/>
<path d="M21.0067 11.9L17.0467 9.61337C16.4 9.24004 15.6 9.24004 14.9467 9.61337L10.9933 11.9C10.3467 12.2734 9.94666 12.9667 9.94666 13.72V18.28C9.94666 19.0267 10.3467 19.72 10.9933 20.1L14.9533 22.3867C15.6 22.76 16.4 22.76 17.0533 22.3867L21.0133 20.1C21.66 19.7267 22.06 19.0334 22.06 18.28V13.72C22.0533 12.9667 21.6533 12.28 21.0067 11.9ZM16 12.8934C16.86 12.8934 17.5533 13.5867 17.5533 14.4467C17.5533 15.3067 16.86 16 16 16C15.14 16 14.4467 15.3067 14.4467 14.4467C14.4467 13.5934 15.14 12.8934 16 12.8934ZM17.7867 19.1067H14.2133C13.6733 19.1067 13.36 18.5067 13.66 18.06C14.1133 17.3867 14.9933 16.9334 16 16.9334C17.0067 16.9334 17.8867 17.3867 18.34 18.06C18.64 18.5 18.32 19.1067 17.7867 19.1067Z" fill="#0F191A"/>
</svg>
