<svg width="32" height="32" viewBox="0 0 32 32" fill="none" xmlns="http://www.w3.org/2000/svg">
<rect width="32" height="32" rx="4" fill="#D90429"/>
<path d="M18.7933 9.33337H13.2067C10.78 9.33337 9.33334 10.78 9.33334 13.2067V18.7867C9.33334 21.22 10.78 22.6667 13.2067 22.6667H18.7867C21.2133 22.6667 22.66 21.22 22.66 18.7934V13.2067C22.6667 10.78 21.22 9.33337 18.7933 9.33337ZM13.0867 20.1C13.0867 20.3734 12.86 20.6 12.5867 20.6C12.3133 20.6 12.0867 20.3734 12.0867 20.1V18.72C12.0867 18.4467 12.3133 18.22 12.5867 18.22C12.86 18.22 13.0867 18.4467 13.0867 18.72V20.1ZM16.5 20.1C16.5 20.3734 16.2733 20.6 16 20.6C15.7267 20.6 15.5 20.3734 15.5 20.1V17.3334C15.5 17.06 15.7267 16.8334 16 16.8334C16.2733 16.8334 16.5 17.06 16.5 17.3334V20.1ZM19.9133 20.1C19.9133 20.3734 19.6867 20.6 19.4133 20.6C19.14 20.6 18.9133 20.3734 18.9133 20.1V15.9534C18.9133 15.68 19.14 15.4534 19.4133 15.4534C19.6867 15.4534 19.9133 15.68 19.9133 15.9534V20.1ZM19.9133 13.8467C19.9133 14.12 19.6867 14.3467 19.4133 14.3467C19.14 14.3467 18.9133 14.12 18.9133 13.8467V13.2C17.2133 14.9467 15.0867 16.18 12.7067 16.7734C12.6667 16.7867 12.6267 16.7867 12.5867 16.7867C12.36 16.7867 12.16 16.6334 12.1 16.4067C12.0333 16.14 12.1933 15.8667 12.4667 15.8C14.7133 15.24 16.7133 14.06 18.3 12.3934H17.4667C17.1933 12.3934 16.9667 12.1667 16.9667 11.8934C16.9667 11.62 17.1933 11.3934 17.4667 11.3934H19.42C19.4467 11.3934 19.4667 11.4067 19.4933 11.4067C19.5267 11.4134 19.56 11.4134 19.5933 11.4267C19.6267 11.44 19.6533 11.46 19.6867 11.48C19.7067 11.4934 19.7267 11.5 19.7467 11.5134C19.7533 11.52 19.7533 11.5267 19.76 11.5267C19.7867 11.5534 19.8067 11.58 19.8267 11.6067C19.8467 11.6334 19.8667 11.6534 19.8733 11.68C19.8867 11.7067 19.8867 11.7334 19.8933 11.7667C19.9 11.8 19.9133 11.8334 19.9133 11.8734C19.9133 11.88 19.92 11.8867 19.92 11.8934V13.8467H19.9133Z" fill="white"/>
</svg>
