<svg width="32" height="32" viewBox="0 0 32 32" fill="none" xmlns="http://www.w3.org/2000/svg">
<rect width="32" height="32" rx="4" fill="#A9DEF9"/>
<path d="M19.6867 13.18C19.64 13.1734 19.5933 13.1734 19.5467 13.18C18.5133 13.1467 17.6933 12.3 17.6933 11.26C17.6933 10.2 18.5533 9.33337 19.62 9.33337C20.68 9.33337 21.5467 10.1934 21.5467 11.26C21.54 12.3 20.72 13.1467 19.6867 13.18Z" fill="#0F191A"/>
<path d="M21.86 17.8C21.1133 18.3 20.0666 18.4867 19.1 18.36C19.3533 17.8134 19.4866 17.2067 19.4933 16.5667C19.4933 15.9 19.3467 15.2667 19.0667 14.7134C20.0533 14.58 21.1 14.7667 21.8533 15.2667C22.9067 15.96 22.9067 17.1 21.86 17.8Z" fill="#0F191A"/>
<path d="M12.2933 13.18C12.34 13.1734 12.3866 13.1734 12.4333 13.18C13.4666 13.1467 14.2866 12.3 14.2866 11.26C14.2866 10.1934 13.4266 9.33337 12.36 9.33337C11.3 9.33337 10.44 10.1934 10.44 11.26C10.44 12.3 11.26 13.1467 12.2933 13.18Z" fill="#0F191A"/>
<path d="M12.3667 16.5667C12.3667 17.2134 12.5067 17.8267 12.76 18.38C11.82 18.48 10.84 18.28 10.12 17.8067C9.06665 17.1067 9.06665 15.9667 10.12 15.2667C10.8333 14.7867 11.84 14.5934 12.7867 14.7C12.5133 15.26 12.3667 15.8934 12.3667 16.5667Z" fill="#0F191A"/>
<path d="M16.08 18.58C16.0266 18.5733 15.9666 18.5733 15.9066 18.58C14.68 18.54 13.7 17.5333 13.7 16.2933C13.7066 15.0267 14.7266 14 16 14C17.2666 14 18.2933 15.0267 18.2933 16.2933C18.2866 17.5333 17.3133 18.54 16.08 18.58Z" fill="#0F191A"/>
<path d="M13.9133 19.96C12.9067 20.6333 12.9067 21.74 13.9133 22.4067C15.06 23.1733 16.94 23.1733 18.0867 22.4067C19.0933 21.7333 19.0933 20.6267 18.0867 19.96C16.9467 19.1933 15.0667 19.1933 13.9133 19.96Z" fill="#0F191A"/>
</svg>
