<svg width="32" height="32" viewBox="0 0 32 32" fill="none" xmlns="http://www.w3.org/2000/svg">
<rect width="32" height="32" rx="4" fill="#A9DEF9"/>
<path d="M21.4 14.1467C20.1933 14.1467 19.7 13.2933 20.3 12.2467C20.6467 11.64 20.44 10.8667 19.8333 10.52L18.68 9.86C18.1533 9.54666 17.4733 9.73333 17.16 10.26L17.0867 10.3867C16.4867 11.4333 15.5 11.4333 14.8933 10.3867L14.82 10.26C14.52 9.73333 13.84 9.54666 13.3133 9.86L12.16 10.52C11.5533 10.8667 11.3467 11.6467 11.6933 12.2533C12.3 13.2933 11.8067 14.1467 10.6 14.1467C9.90668 14.1467 9.33334 14.7133 9.33334 15.4133V16.5867C9.33334 17.28 9.90001 17.8533 10.6 17.8533C11.8067 17.8533 12.3 18.7067 11.6933 19.7533C11.3467 20.36 11.5533 21.1333 12.16 21.48L13.3133 22.14C13.84 22.4533 14.52 22.2667 14.8333 21.74L14.9067 21.6133C15.5067 20.5667 16.4933 20.5667 17.1 21.6133L17.1733 21.74C17.4867 22.2667 18.1667 22.4533 18.6933 22.14L19.8467 21.48C20.4533 21.1333 20.66 20.3533 20.3133 19.7533C19.7067 18.7067 20.2 17.8533 21.4067 17.8533C22.1 17.8533 22.6733 17.2867 22.6733 16.5867V15.4133C22.6667 14.72 22.1 14.1467 21.4 14.1467ZM16 18.1667C14.8067 18.1667 13.8333 17.1933 13.8333 16C13.8333 14.8067 14.8067 13.8333 16 13.8333C17.1933 13.8333 18.1667 14.8067 18.1667 16C18.1667 17.1933 17.1933 18.1667 16 18.1667Z" fill="#0F191A"/>
</svg>
