<svg width="32" height="32" viewBox="0 0 32 32" fill="none" xmlns="http://www.w3.org/2000/svg">
<rect width="32" height="32" rx="4" fill="#A9DEF9"/>
<path d="M21.94 15.4134V12.4867C21.94 11.94 21.5267 11.32 21.0134 11.1134L17.3 9.59338C16.4667 9.25338 15.5267 9.25338 14.6934 9.59338L10.98 11.1134C10.4734 11.32 10.06 11.94 10.06 12.4867V15.4134C10.06 18.6734 12.4267 21.7267 15.66 22.62C15.88 22.68 16.12 22.68 16.34 22.62C19.5734 21.7267 21.94 18.6734 21.94 15.4134ZM16.5 16.58V18.3334C16.5 18.6067 16.2734 18.8334 16 18.8334C15.7267 18.8334 15.5 18.6067 15.5 18.3334V16.58C14.8267 16.3667 14.3334 15.74 14.3334 15C14.3334 14.08 15.08 13.3334 16 13.3334C16.92 13.3334 17.6667 14.08 17.6667 15C17.6667 15.7467 17.1734 16.3667 16.5 16.58Z" fill="#0F191A"/>
</svg>
