<svg width="16" height="16" viewBox="0 0 16 16" fill="none" xmlns="http://www.w3.org/2000/svg">
<path d="M14 14.6667H2C1.72667 14.6667 1.5 14.4401 1.5 14.1667C1.5 13.8934 1.72667 13.6667 2 13.6667H14C14.2733 13.6667 14.5 13.8934 14.5 14.1667C14.5 14.4401 14.2733 14.6667 14 14.6667Z" fill="#0F191A" fill-opacity="0.5"/>
<path d="M12.68 2.32006C11.3867 1.02673 10.12 0.993397 8.79334 2.32006L7.98668 3.12673C7.92001 3.1934 7.89334 3.30006 7.92001 3.3934C8.42668 5.16006 9.84001 6.5734 11.6067 7.08006C11.6333 7.08673 11.66 7.0934 11.6867 7.0934C11.76 7.0934 11.8267 7.06673 11.88 7.0134L12.68 6.20673C13.34 5.5534 13.66 4.92006 13.66 4.28006C13.6667 3.62006 13.3467 2.98006 12.68 2.32006Z" fill="#0F191A" fill-opacity="0.5"/>
<path d="M10.4067 7.68666C10.2133 7.59332 10.0267 7.49999 9.84668 7.39333C9.70001 7.30666 9.56001 7.21333 9.42001 7.11333C9.30668 7.03999 9.17334 6.93332 9.04668 6.82666C9.03334 6.81999 8.98668 6.77999 8.93334 6.72666C8.71334 6.53999 8.46668 6.29999 8.24668 6.03333C8.22668 6.01999 8.19334 5.97333 8.14668 5.91333C8.08001 5.83333 7.96668 5.69999 7.86668 5.54666C7.78668 5.44666 7.69334 5.29999 7.60668 5.15333C7.50001 4.97333 7.40668 4.79332 7.31334 4.60666C7.29922 4.57639 7.28555 4.54628 7.2723 4.51635C7.17392 4.29414 6.88416 4.22917 6.71232 4.40101L2.89334 8.21999C2.80668 8.30666 2.72668 8.47333 2.70668 8.58666L2.34668 11.14C2.28001 11.5933 2.40668 12.02 2.68668 12.3067C2.92668 12.54 3.26001 12.6667 3.62001 12.6667C3.70001 12.6667 3.78001 12.66 3.86001 12.6467L6.42001 12.2867C6.54001 12.2667 6.70668 12.1867 6.78668 12.1L10.6009 8.28578C10.7739 8.11275 10.7086 7.81577 10.4836 7.71973C10.4582 7.70892 10.4326 7.6979 10.4067 7.68666Z" fill="#0F191A" fill-opacity="0.5"/>
</svg>
