<svg width="20" height="20" viewBox="0 0 20 20" fill="none" xmlns="http://www.w3.org/2000/svg">
<path d="M17.5 18.3334H2.5C2.15833 18.3334 1.875 18.05 1.875 17.7084C1.875 17.3667 2.15833 17.0834 2.5 17.0834H17.5C17.8417 17.0834 18.125 17.3667 18.125 17.7084C18.125 18.05 17.8417 18.3334 17.5 18.3334Z" fill="#0F191A"/>
<path d="M15.85 2.90005C14.2333 1.28338 12.65 1.24172 10.9917 2.90005L9.98334 3.90838C9.90001 3.99172 9.86668 4.12505 9.90001 4.24172C10.5333 6.45005 12.3 8.21672 14.5083 8.85005C14.5417 8.85838 14.575 8.86672 14.6083 8.86672C14.7 8.86672 14.7833 8.83338 14.85 8.76672L15.85 7.75838C16.675 6.94172 17.075 6.15005 17.075 5.35005C17.0833 4.52505 16.6833 3.72505 15.85 2.90005Z" fill="#0F191A"/>
<path d="M13.0083 9.60829C12.7667 9.49163 12.5333 9.37496 12.3083 9.24163C12.125 9.13329 11.95 9.01663 11.775 8.89163C11.6333 8.79996 11.4667 8.66663 11.3083 8.53329C11.2917 8.52496 11.2333 8.47496 11.1667 8.40829C10.8917 8.17496 10.5833 7.87496 10.3083 7.54163C10.2833 7.52496 10.2417 7.46663 10.1833 7.39163C10.1 7.29163 9.95834 7.12496 9.83334 6.93329C9.73334 6.80829 9.61668 6.62496 9.50834 6.44163C9.37501 6.21663 9.25834 5.99163 9.14168 5.75829C9.12402 5.72046 9.10694 5.68282 9.09038 5.64541C8.9674 5.36764 8.6052 5.28644 8.3904 5.50123L3.61668 10.275C3.50834 10.3833 3.40834 10.5916 3.38334 10.7333L2.93334 13.925C2.85001 14.4916 3.00834 15.025 3.35834 15.3833C3.65834 15.675 4.07501 15.8333 4.52501 15.8333C4.62501 15.8333 4.72501 15.825 4.82501 15.8083L8.02501 15.3583C8.17501 15.3333 8.38334 15.2333 8.48334 15.125L13.2511 10.3572C13.4674 10.1409 13.3858 9.76969 13.1045 9.64964C13.0728 9.63612 13.0408 9.62235 13.0083 9.60829Z" fill="#0F191A"/>
</svg>
