<svg width="20" height="20" viewBox="0 0 20 20" fill="none" xmlns="http://www.w3.org/2000/svg">
<path d="M17.475 0.833374H15.025C14.3 0.833374 13.7667 1.13337 13.525 1.66671C13.3917 1.90837 13.3333 2.19171 13.3333 2.52504V4.97504C13.3333 6.03337 13.9667 6.66671 15.025 6.66671H17.475C17.8083 6.66671 18.0917 6.60837 18.3333 6.47504C18.8667 6.23337 19.1667 5.70004 19.1667 4.97504V2.52504C19.1667 1.46671 18.5333 0.833374 17.475 0.833374ZM18.2583 4.10837C18.175 4.19171 18.05 4.25004 17.9167 4.25837H16.7417V4.68337L16.75 5.41671C16.7417 5.55837 16.6917 5.67504 16.5917 5.77504C16.5083 5.85837 16.3833 5.91671 16.25 5.91671C15.975 5.91671 15.75 5.69171 15.75 5.41671V4.25004L14.5833 4.25837C14.3083 4.25837 14.0833 4.02504 14.0833 3.75004C14.0833 3.47504 14.3083 3.25004 14.5833 3.25004L15.3167 3.25837H15.75V2.09171C15.75 1.81671 15.975 1.58337 16.25 1.58337C16.525 1.58337 16.75 1.81671 16.75 2.09171L16.7417 2.68337V3.25004H17.9167C18.1917 3.25004 18.4167 3.47504 18.4167 3.75004C18.4083 3.89171 18.35 4.00837 18.2583 4.10837Z" fill="#0F191A"/>
<path d="M7.5 8.65002C8.59536 8.65002 9.48333 7.76205 9.48333 6.66668C9.48333 5.57132 8.59536 4.68335 7.5 4.68335C6.40463 4.68335 5.51666 5.57132 5.51666 6.66668C5.51666 7.76205 6.40463 8.65002 7.5 8.65002Z" fill="#0F191A"/>
<path d="M17.475 6.66663H17.0833V10.5083L16.975 10.4166C16.325 9.85829 15.275 9.85829 14.625 10.4166L11.1583 13.3916C10.5083 13.95 9.45834 13.95 8.80834 13.3916L8.525 13.1583C7.93334 12.6416 6.99167 12.5916 6.32501 13.0416L3.20834 15.1333C3.025 14.6666 2.91667 14.125 2.91667 13.4916V6.50829C2.91667 4.15829 4.15834 2.91663 6.50834 2.91663H13.3333V2.52496C13.3333 2.19163 13.3917 1.90829 13.525 1.66663H6.50834C3.475 1.66663 1.66667 3.47496 1.66667 6.50829V13.4916C1.66667 14.4 1.82501 15.1916 2.13334 15.8583C2.85001 17.4416 4.38334 18.3333 6.50834 18.3333H13.4917C16.525 18.3333 18.3333 16.525 18.3333 13.4916V6.47496C18.0917 6.60829 17.8083 6.66663 17.475 6.66663Z" fill="#0F191A"/>
</svg>
